<svg xmlns="http://www.w3.org/2000/svg" xml:space="preserve" fill-rule="evenodd" stroke-linejoin="round" stroke-miterlimit="2" clip-rule="evenodd" version="1.1" viewBox="0 0 100 100"><path fill="none" d="M89.764 17.036c-6.838 1.739-12.608 4.183-17.392 6.988-7.226-4.9-15.553-6.988-22.074-6.988-6.945 0-15.671 1.92-23.205 6.623-4.446-2.653-9.673-4.961-15.698-6.623m78.369 0c-6.838 1.739-12.608 4.183-17.392 6.988-7.226-4.9-15.553-6.988-22.074-6.988-6.945 0-15.671 1.92-23.205 6.623-4.446-2.653-9.673-4.961-15.698-6.623"/><path fill="none" d="M27.093 23.659c11.92 7.111 18.23 16.699 19.258 22.939 4.273 25.943-8.576 36.366-16.773 36.366-8.198 0-18.474-1.112-19.311-25.485-.587-17.11 7.133-27.769 16.826-33.82m45.279.365c9.12 6.185 16.487 16.85 16.264 33.455-.337 25.1-10.267 25.485-17.9 25.485-7.634 0-20.765-9.404-17.056-36.366.847-6.153 6.644-15.509 18.692-22.574"/></svg>