<?xml version="1.0" encoding="UTF-8" standalone="no"?>
<!DOCTYPE svg PUBLIC "-//W3C//DTD SVG 1.1//EN" "http://www.w3.org/Graphics/SVG/1.1/DTD/svg11.dtd">
<svg width="100%" height="100%" viewBox="0 0 66 70" version="1.1" xmlns="http://www.w3.org/2000/svg" xmlns:xlink="http://www.w3.org/1999/xlink" xml:space="preserve" xmlns:serif="http://www.serif.com/" style="fill-rule:evenodd;clip-rule:evenodd;stroke-linejoin:round;stroke-miterlimit:2;">
    <path d="M21.837,66.778C1.044,53.823 5.339,12.473 32.589,7.356C59.894,12.483 65.467,53.899 44.535,66.778" style="fill:none;fill-rule:nonzero;"/>
    <path d="M37,42.843L29,34.843" style="fill:none;fill-rule:nonzero;"/>
    <path d="M12.756,43.067L4.756,35.067" style="fill:none;fill-rule:nonzero;"/>
    <path d="M61.244,43.067L53.244,35.067" style="fill:none;fill-rule:nonzero;"/>
    <path d="M49.845,43.067L41.845,35.067" style="fill:none;fill-rule:nonzero;"/>
    <path d="M24.155,42.843L16.155,34.843" style="fill:none;fill-rule:nonzero;"/>
    <path d="M38.005,64.778C50.499,54.07 47.495,21.695 33.006,7.356C19.545,18.787 15.021,52.964 27.434,64.742" style="fill:none;fill-rule:nonzero;"/>
    <path d="M44.375,3.222C37.792,9.222 27.208,8.222 21.625,3.222" style="fill:none;fill-rule:nonzero;"/>
    <path d="M33,7.356L33,62.33" style="fill:none;fill-rule:nonzero;"/>
</svg>
